HIERARCHY
ROOT Hips
{
	OFFSET -278.121490 93.318451 465.951996
	CHANNELS 6 Xposition Yposition Zposition Zrotation Yrotation Xrotation 
	JOINT LeftUpLeg
	{
		OFFSET 0.103457 1.857822 10.548516
		CHANNELS 3 Zrotation Yrotation Xrotation
		JOINT LeftLeg
		{
			OFFSET 43.500008 -0.000031 0.000015
			CHANNELS 3 Zrotation Yrotation Xrotation
			JOINT LeftFoot
			{
				OFFSET 42.372192 0.000027 -0.000009
				CHANNELS 3 Zrotation Yrotation Xrotation
				JOINT LeftToe
				{
					OFFSET 17.299999 0.000000 -0.000004
					CHANNELS 3 Zrotation Yrotation Xrotation
					End Site
					{
						OFFSET 0.000000 0.000000 0.000000
					}
				}
			}
		}
	}
	JOINT RightUpLeg
	{
		OFFSET 0.103460 1.857822 -10.548513
		CHANNELS 3 Zrotation Yrotation Xrotation
		JOINT RightLeg
		{
			OFFSET 43.500038 -0.000015 -0.000002
			CHANNELS 3 Zrotation Yrotation Xrotation
			JOINT RightFoot
			{
				OFFSET 42.372269 -0.000019 0.000014
				CHANNELS 3 Zrotation Yrotation Xrotation
				JOINT RightToe
				{
					OFFSET 17.300005 -0.000001 0.000011
					CHANNELS 3 Zrotation Yrotation Xrotation
					End Site
					{
						OFFSET 0.000000 0.000000 0.000000
					}
				}
			}
		}
	}
	JOINT Spine
	{
		OFFSET 6.901966 -2.603743 -0.000003
		CHANNELS 3 Zrotation Yrotation Xrotation
		JOINT Spine1
		{
			OFFSET 12.588103 0.000012 0.000008
			CHANNELS 3 Zrotation Yrotation Xrotation
			JOINT Spine2
			{
				OFFSET 12.343199 0.000004 0.000007
				CHANNELS 3 Zrotation Yrotation Xrotation
				JOINT Neck
				{
					OFFSET 25.832901 -0.000008 -0.000001
					CHANNELS 3 Zrotation Yrotation Xrotation
					JOINT Head
					{
						OFFSET 11.766611 0.000029 -0.000004
						CHANNELS 3 Zrotation Yrotation Xrotation
						End Site
						{
							OFFSET 0.000000 0.000000 0.000000
						}
					}
				}
				JOINT LeftShoulder
				{
					OFFSET 19.745907 -1.480370 6.000077
					CHANNELS 3 Zrotation Yrotation Xrotation
					JOINT LeftArm
					{
						OFFSET 11.284128 -0.000004 -0.000015
						CHANNELS 3 Zrotation Yrotation Xrotation
						JOINT LeftForeArm
						{
							OFFSET 33.000065 0.000010 0.000016
							CHANNELS 3 Zrotation Yrotation Xrotation
							JOINT LeftHand
							{
								OFFSET 25.200001 0.000010 0.000006
								CHANNELS 3 Zrotation Yrotation Xrotation
								End Site
								{
									OFFSET 0.000000 0.000000 0.000000
								}
							}
						}
					}
				}
				JOINT RightShoulder
				{
					OFFSET 19.746094 -1.480385 -6.000086
					CHANNELS 3 Zrotation Yrotation Xrotation
					JOINT RightArm
					{
						OFFSET 11.284142 -0.000011 -0.000013
						CHANNELS 3 Zrotation Yrotation Xrotation
						JOINT RightForeArm
						{
							OFFSET 33.000092 0.000004 0.000015
							CHANNELS 3 Zrotation Yrotation Xrotation
							JOINT RightHand
							{
								OFFSET 25.199759 0.000141 0.000412
								CHANNELS 3 Zrotation Yrotation Xrotation
								End Site
								{
									OFFSET 0.000000 0.000000 0.000000
								}
							}
						}
					}
				}
			}
		}
	}
}
MOTION
Frames: 12
Frame Time: 0.033333
254.156097 90.335587 -454.359589 92.406825 -7.022710 -99.349002 167.318762 -8.487312 174.097984 -63.941670 -1.769922 5.260481 77.914201 -4.039181 -1.438154 21.454548 0.003096 0.000002 178.857205 -6.767599 -177.963693 -19.308904 2.477173 1.879423 82.385393 -2.756213 -6.210551 21.454558 -0.003106 -0.000017 7.942660 0.789151 0.173486 5.875667 1.568460 0.386635 5.557442 1.570900 0.377157 16.685495 7.242268 2.128468 -22.024327 -7.903681 5.635426 -163.592757 -79.891152 -18.202249 -3.887760 59.845189 46.272425 -29.966888 -15.113651 1.236338 -0.114003 -2.691506 12.328541 176.258919 71.909290 -2.488583 -11.565303 -51.006965 -30.649098 -31.305308 17.003375 -1.410380 8.822994 3.829803 -13.857078 
254.688599 90.145287 -456.639496 92.634031 -7.067212 -99.660035 165.234311 -8.257790 175.467191 -58.596835 -2.356575 4.509175 80.980745 -3.490540 -1.686163 21.454555 0.003082 0.000001 -179.966728 -7.037898 -177.456511 -20.266911 2.349847 1.425751 83.936167 -2.373579 -6.323538 21.454558 -0.003116 -0.000019 7.993314 0.793474 0.340830 5.979313 1.568330 0.722086 5.661099 1.572791 0.712611 16.983364 7.023288 1.976193 -21.718998 -7.599691 5.301031 -162.737002 -79.788774 -19.072683 -3.717360 59.864074 45.258179 -30.084282 -15.279459 1.249250 0.053856 -5.595624 9.155160 175.441086 71.979327 -3.327529 -13.025441 -50.494448 -29.560389 -32.757232 17.290043 -1.459499 8.693229 4.142630 -14.039862 
255.210007 89.983856 -458.919189 92.827578 -6.951078 -100.084961 163.599751 -7.487297 176.253742 -51.966145 -2.274535 3.551443 82.066362 -2.362584 0.156832 21.454551 0.003097 0.000000 -178.786690 -7.284195 -177.497806 -20.869918 2.305795 1.137760 85.303120 -2.069334 -6.196582 21.454560 -0.003112 -0.000017 8.005519 0.807749 0.522114 6.006274 1.587384 1.085381 5.688116 1.594045 1.075771 17.138510 6.796038 1.811194 -21.384562 -7.427330 5.016315 -162.434084 -79.523920 -19.383223 -3.963851 59.827799 44.126519 -30.265183 -15.522660 1.268368 0.339735 -6.952824 7.356494 174.861408 72.089990 -3.920402 -14.424116 -49.997920 -28.978348 -34.150584 17.747422 -1.519861 8.637793 4.744290 -13.847368 
255.748596 89.804382 -461.176514 93.083478 -6.672165 -100.461059 162.314746 -6.666109 176.856711 -44.577236 -1.795668 2.787795 81.747631 -1.768204 0.461070 21.454548 0.003094 0.000002 -177.535946 -7.667803 -177.836215 -21.029574 2.314239 1.036255 86.354717 -1.969947 -6.353986 21.454560 -0.003117 -0.000018 7.987457 0.855766 0.666406 5.972763 1.676116 1.376023 5.654616 1.684532 1.365882 17.143099 6.530507 1.693212 -21.104849 -7.340292 4.831041 -162.336180 -79.204643 -19.485994 -4.572206 59.809856 43.113216 -30.309388 -15.699772 1.280593 0.373379 -7.400386 6.751770 173.975177 72.252207 -4.826494 -15.745225 -49.544546 -28.454146 -35.347021 18.113272 -1.571175 8.183833 5.418676 -13.545599 
256.365601 89.515404 -463.431000 93.542200 -6.202109 -100.833987 161.222654 -5.930604 177.326314 -37.034020 -1.272256 2.628042 80.450155 -1.532557 0.993813 21.454553 0.003099 0.000002 -176.314503 -8.336498 -178.299616 -21.034131 2.389244 1.009870 87.225723 -2.023772 -7.014152 21.454558 -0.003108 -0.000016 7.928957 0.946588 0.788542 5.858974 1.852183 1.623969 5.540828 1.862089 1.612757 17.156692 6.372888 1.643225 -21.001269 -7.375253 4.782000 -162.061524 -79.102449 -19.766515 -5.201792 60.005664 42.501194 -30.478206 -15.847209 1.293368 0.235097 -7.260010 7.433303 172.917686 72.216901 -5.913831 -16.819001 -48.962423 -28.069680 -36.407978 18.396181 -1.614926 7.794639 5.691277 -13.570172 
257.031799 89.326874 -465.681610 93.831991 -5.685210 -101.357063 160.567980 -5.313299 177.484050 -29.250459 -1.570888 2.274442 77.100637 -1.362489 0.616783 21.454550 0.003098 0.000003 -174.906432 -8.744292 -178.872833 -20.496259 2.519440 0.884366 87.968800 -1.906168 -7.069884 21.454560 -0.003098 -0.000018 7.853986 1.000843 0.906139 5.711854 1.955932 1.860589 5.393736 1.967257 1.848751 17.145315 6.290465 1.664745 -21.058860 -7.478316 4.851238 -161.453637 -79.053081 -20.385695 -5.727004 60.300134 41.968767 -30.924071 -15.899048 1.305572 0.060267 -6.705524 8.505211 172.417908 72.127009 -6.429866 -18.004293 -48.380149 -27.743600 -37.242074 18.496595 -1.642034 7.617374 5.791795 -13.817602 
257.751709 89.161888 -467.906311 94.027342 -5.154416 -101.928955 160.380833 -4.663808 177.455732 -21.783476 -2.315138 1.119281 72.868481 -0.326526 1.200376 21.454553 0.003095 0.000001 -173.379598 -9.022288 -179.419862 -19.661104 2.665190 0.677307 88.523944 -1.736420 -7.067502 21.454562 -0.003120 -0.000018 7.783641 1.034282 0.976605 5.572983 2.020558 2.001904 5.254880 2.032751 1.989671 17.022920 6.149077 1.794740 -21.203771 -7.493064 5.012734 -160.494870 -78.908076 -21.362941 -5.964345 60.537189 41.645449 -31.669306 -15.918999 1.322021 -0.337810 -5.835164 9.877801 171.933975 72.078727 -6.928556 -19.321060 -48.028316 -27.443391 -37.692003 18.531116 -1.655577 7.595129 5.790540 -13.892620 
258.504211 88.956047 -470.139313 94.219488 -4.557547 -102.516966 160.170176 -3.828587 176.092058 -15.968687 -2.063563 -0.041758 70.181751 0.420696 0.868298 21.454551 0.003093 0.000002 -171.861397 -9.298798 -179.922455 -18.752974 2.788498 0.421099 88.934377 -1.558437 -7.158501 21.454553 -0.003113 -0.000016 7.696512 1.055650 1.013191 5.399742 2.063133 2.074579 5.081663 2.075756 2.062086 16.881984 6.026909 1.980059 -21.414335 -7.452932 5.216846 -160.067341 -78.785214 -21.799802 -5.870396 60.716140 41.861212 -32.391178 -16.051129 1.345584 -0.689898 -5.141545 10.652285 171.143872 72.093692 -7.739618 -20.290421 -48.207953 -26.805649 -37.931377 18.590412 -1.665504 7.328750 5.601372 -14.321525 
259.239899 88.736893 -472.402405 94.236625 -3.992039 -103.217040 160.158756 -3.054505 175.350244 -11.998520 -1.948427 -0.580809 69.080178 0.563771 0.158620 21.454551 0.003091 -0.000001 -170.437904 -9.402994 179.364237 -18.047450 2.850169 0.265228 89.302722 -1.446942 -7.238297 21.454557 -0.003103 -0.000017 7.607274 1.006458 1.050113 5.220898 1.964806 2.144567 4.902831 1.977848 2.132680 16.739880 6.201484 2.166732 -21.678146 -7.532795 5.478955 -159.435125 -78.787072 -22.443216 -5.829733 60.872804 42.294099 -32.901581 -16.194080 1.365664 -0.866995 -4.592368 11.093067 170.621090 71.777707 -8.286993 -20.852690 -48.447263 -26.603466 -37.886120 18.777792 -1.676502 7.169159 5.329772 -14.723899 
259.896606 88.711388 -474.614899 93.631580 -3.583984 -104.035037 160.064732 -1.973107 175.492913 -11.005515 -1.768891 0.694435 67.299637 -0.047791 1.014312 21.454551 0.003100 0.000001 -169.140168 -8.810896 178.929824 -17.457113 2.741861 -0.058667 89.339400 -1.226791 -7.249956 21.454558 -0.003095 -0.000014 7.534856 0.803644 1.080295 5.072271 1.559426 2.194720 4.754303 1.572794 2.185266 16.428958 6.313860 2.319909 -21.968728 -7.464067 5.655374 -158.575628 -78.596489 -23.321116 -6.197879 60.799086 42.189809 -33.239334 -16.170058 1.371429 -1.135345 -4.070893 11.772650 170.539606 71.665801 -8.374575 -21.178972 -49.177383 -26.345715 -37.879953 18.797557 -1.677635 6.996422 5.347945 -14.821085 
260.510010 88.683533 -477.024414 92.833213 -3.529181 -104.999023 160.630681 -0.584601 177.719473 -11.703160 -1.330660 0.936361 63.585052 0.972341 3.889304 21.454553 0.003088 0.000001 -167.885695 -7.850200 178.689606 -17.688766 2.526777 -0.510823 89.351012 -0.888534 -7.072029 21.454555 -0.003091 -0.000015 7.513351 0.499881 1.123522 5.023435 0.950808 2.267606 4.705567 0.964628 2.261826 16.353501 6.430461 2.458279 -22.590776 -7.200046 5.747565 -157.857980 -78.604330 -24.051478 -6.755187 60.743181 41.826572 -33.163119 -16.008147 1.359349 -1.428260 -3.741005 12.163816 170.541122 71.503898 -8.378469 -20.870247 -50.280079 -25.714305 -37.983908 18.551383 -1.664311 6.963402 5.330524 -15.495797 
261.139709 88.926018 -479.461914 91.535402 -3.809448 -105.802984 161.653338 0.660096 -178.875688 -12.767254 -1.656802 -1.878586 64.232035 2.471197 2.585341 21.454553 0.003100 0.000001 -166.800501 -6.429094 178.599434 -18.356010 2.154995 -0.797123 88.568176 -0.672853 -6.722983 21.454558 -0.003102 -0.000017 7.550989 0.042747 1.118013 5.089481 0.036559 2.236783 4.771656 0.050202 2.236526 16.012706 6.521028 2.535073 -22.711685 -6.883689 5.725973 -157.865766 -78.441027 -24.046412 -8.148521 60.197066 41.338979 -32.412482 -15.798783 1.329805 -1.109379 -3.760972 11.995328 170.610421 71.144821 -8.319402 -20.025117 -51.442700 -25.884084 -37.880670 18.557752 -1.662100 6.806328 5.572806 -15.773885 
